# xmcd
#
# Track frame offsets: 
#        150
#        17763
#        61423
#        102496
#        129602
#        153209
#        176883
#        197009
#        214792
#        253404
#        286935
#
# Disc length: 4426 seconds
#
# Revision: 2
# Processed by: cddbd v1.5.2PL0 Copyright (c) Steve Scherf et al.
# Submitted via: ExactAudioCopy v0.99pb5
#
DISCID=a411480b
DTITLE=Various Artist - African Pearls, Vol. 2- Guinée - Cultural Revolution 
DTITLE=[CD2]
DYEAR=2006
DGENRE=Ethnic
TTITLE0=Bembeya Jazz National - Armée Guinéenne
TTITLE1=Keletigui et ses Tambourinis - Maderi
TTITLE2=Horoya Band - Sassilon
TTITLE3=Super Boiro Band - So I Si Sa
TTITLE4=Pivi et ses Balladins - Kogno Koura
TTITLE5=Camayenne Sofas - Nanimbaly
TTITLE6=Kalum Star - Lalaba
TTITLE7=Orchestre de la Garde Républicaine - La Guinée Diara
TTITLE8=Sily Authentic - Andree
TTITLE9=22 Band Kankan - Wousse
TTITLE10=Balla et ses Balladins - Sara 70
EXTD=
EXTT0=
EXTT1=
EXTT2=
EXTT3=
EXTT4=
EXTT5=
EXTT6=
EXTT7=
EXTT8=
EXTT9=
EXTT10=
PLAYORDER=
